# xmcd
#
# Track frame offsets:
#	150
#	29280
#	48531
#	77712
#	115487
#	150529
#	165084
#	190010
#	216018
#	248341
#	285207
#	310411
#	336432
#
# Disc length: 4797 seconds
#
# Revision: 1
# Processed by: cddbd v1.5.2PL0 Copyright (c) Steve Scherf et al.
# Submitted via: audiograbber 1.83.01
#
DISCID=a212bb0d
DTITLE=Grateful Dead - 82-09-17M Cumberland County Civic Centre, Portland ME
DYEAR=1900
DGENRE=
TTITLE0=Bertha
TTITLE1=Promised Land
TTITLE2=Candyman
TTITLE3=CC Rider
TTITLE4=Althea
TTITLE5=Me and My Uncle
TTITLE6=Big River
TTITLE7=Dupree's Diamond Blues
TTITLE8=It's All Over Now
TTITLE9=West LA Fadeaway
TTITLE10=Throwing Stones
TTITLE11=Deal
TTITLE12=US Blues
EXTD=
EXTT0=
EXTT1=
EXTT2=
EXTT3=
EXTT4=
EXTT5=
EXTT6=
EXTT7=
EXTT8=
EXTT9=
EXTT10=
EXTT11=
EXTT12=
PLAYORDER=
